<?xml version="1.0" standalone="no"?>
<!DOCTYPE svg PUBLIC "-//W3C//DTD SVG 20010904//EN"
 "http://www.w3.org/TR/2001/REC-SVG-20010904/DTD/svg10.dtd">
<svg version="1.0" xmlns="http://www.w3.org/2000/svg"
 width="772.000000pt" height="710.000000pt" viewBox="0 0 772.000000 710.000000"
 preserveAspectRatio="xMidYMid meet">

<g transform="translate(0.000000,710.000000) scale(0.100000,-0.100000)"
fill="#000000" stroke="none">
<path d="M4940 6914 c-337 -51 -546 -177 -712 -430 l-42 -64 -1676 -2 -1675
-3 0 -2980 0 -2980 2978 -3 c2378 -2 2977 0 2977 10 3 1076 -2 5943 -6 5949
-3 5 -210 9 -489 9 l-483 0 -43 68 c-77 123 -208 242 -349 319 -133 73 -363
124 -480 107z m266 -170 c76 -24 144 -60 144 -75 0 -11 -43 -11 -90 0 -53 12
-195 -6 -280 -35 -98 -34 -190 -81 -190 -97 0 -6 9 -25 20 -42 26 -39 26 -103
-1 -165 -39 -90 -133 -136 -229 -111 -45 12 -53 11 -82 -6 -59 -34 -117 -170
-139 -321 -13 -90 -8 -132 27 -252 l7 -25 -22 20 c-85 74 -146 302 -122 454
48 308 251 552 542 652 129 44 288 45 415 3z m-1080 -467 c2 -7 -3 -35 -12
-62 -13 -38 -18 -95 -20 -232 l-2 -182 -36 -75 c-84 -175 -393 -428 -683 -559
-163 -74 -259 -97 -398 -97 -114 0 -185 15 -265 55 -108 55 -275 95 -390 95
-237 -1 -466 -91 -634 -249 -200 -190 -298 -435 -283 -709 11 -195 78 -375
196 -524 84 -106 227 -216 341 -262 25 -10 54 -22 65 -27 86 -35 145 -43 300
-43 158 0 199 6 310 46 60 21 138 60 194 96 93 61 129 74 222 79 148 9 321
-36 544 -141 215 -102 452 -280 537 -404 72 -104 90 -157 99 -292 5 -69 17
-154 26 -190 23 -91 77 -213 124 -284 22 -33 38 -65 35 -73 -4 -11 -303 -13
-1710 -13 -937 0 -1711 3 -1720 6 -15 6 -16 193 -16 2023 0 1110 3 2021 7
2024 3 4 717 7 1585 7 1269 0 1580 -2 1584 -13z m2532 -2006 c1 -1480 -1
-2017 -9 -2027 -9 -11 -87 -14 -410 -14 -219 0 -400 4 -403 8 -3 5 15 40 40
78 75 114 96 165 134 329 57 242 -18 540 -190 753 -64 79 -181 175 -273 223
-97 51 -137 92 -186 194 -74 153 -102 313 -108 619 -5 212 9 395 36 476 5 14
14 43 21 65 36 117 104 212 194 269 172 110 317 313 378 531 18 66 22 105 22
230 0 87 -5 158 -11 170 -6 11 -14 41 -17 68 l-7 47 393 -2 393 -3 3 -2014z
m-2128 950 c36 -21 97 -50 135 -66 82 -34 116 -62 155 -130 82 -146 130 -397
130 -684 0 -260 -38 -447 -115 -576 -48 -79 -80 -112 -140 -142 -27 -14 -76
-46 -109 -70 -102 -78 -170 -89 -326 -53 -119 26 -188 50 -320 110 -277 125
-517 290 -625 430 -79 103 -87 123 -97 255 -14 193 -13 207 19 277 76 163 386
414 688 557 185 89 271 118 376 129 112 12 156 5 229 -37z m-2029 -192 c82
-27 137 -53 169 -80 l25 -21 -35 7 c-123 22 -239 15 -349 -21 -65 -22 -187
-80 -195 -93 -4 -6 2 -28 14 -50 37 -73 21 -168 -37 -222 -54 -51 -89 -62
-173 -55 -110 9 -134 -6 -182 -116 -36 -85 -68 -221 -68 -294 0 -21 9 -71 20
-109 25 -89 25 -93 -4 -64 -34 35 -73 116 -97 206 -96 348 128 753 491 887
100 37 136 43 251 45 83 1 120 -4 170 -20z m2869 -1468 c70 -25 141 -67 148
-89 4 -12 0 -12 -19 -1 -17 9 -62 13 -149 12 -113 -1 -134 -4 -212 -32 -89
-32 -152 -62 -178 -87 -13 -12 -12 -19 5 -50 14 -26 19 -54 18 -97 -1 -74 -36
-128 -103 -165 -40 -21 -53 -23 -125 -18 -100 7 -128 -7 -168 -87 -67 -133
-93 -310 -63 -425 21 -82 20 -89 -4 -67 -21 19 -71 117 -89 175 -75 244 5 534
201 731 100 101 195 158 333 201 82 25 101 28 215 24 98 -2 139 -8 190 -25z
m-3541 -1762 c83 -14 151 -36 174 -56 14 -13 17 -34 17 -119 0 -57 -4 -105
-10 -109 -5 -3 -32 11 -59 30 -68 49 -146 75 -225 75 -104 0 -156 -31 -156
-93 0 -48 39 -80 125 -102 199 -50 285 -99 331 -187 26 -50 30 -174 9 -243
-22 -69 -94 -149 -166 -183 -102 -49 -285 -53 -417 -8 -120 41 -112 30 -112
161 0 105 2 115 18 115 11 0 27 -9 36 -19 9 -10 51 -36 93 -57 63 -32 88 -39
149 -42 92 -5 134 2 162 28 45 42 37 111 -16 142 -15 9 -67 26 -115 38 -207
49 -286 115 -316 262 -42 202 119 372 358 377 30 0 84 -4 120 -10z m3378 -4
c134 -40 244 -170 279 -330 18 -83 18 -280 -1 -351 -35 -134 -103 -238 -191
-289 -38 -22 -44 -30 -44 -60 0 -25 8 -40 32 -60 32 -27 60 -29 178 -13 25 3
25 2 28 -74 3 -74 2 -78 -25 -95 -42 -28 -223 -25 -278 4 -76 41 -135 127
-135 199 0 32 -26 54 -63 54 -48 0 -147 51 -199 104 -89 89 -138 235 -138 411
0 85 19 199 42 251 56 130 153 222 268 253 55 15 191 13 247 -4z m-2511 -26
c127 -48 184 -140 184 -299 0 -122 -24 -186 -99 -261 -69 -69 -125 -89 -265
-98 l-101 -6 -5 -155 -5 -155 -100 0 -100 0 -3 498 -2 497 220 0 c199 0 224
-2 276 -21z m718 -11 c7 -18 21 -60 31 -93 10 -33 21 -71 25 -85 14 -41 56
-181 75 -245 10 -33 28 -91 40 -130 13 -38 35 -110 50 -160 15 -49 33 -106 40
-125 7 -20 16 -57 20 -83 l7 -48 -103 3 -104 3 -18 55 c-10 30 -24 73 -31 95
l-13 40 -151 3 c-173 3 -157 12 -187 -103 -10 -38 -22 -76 -28 -82 -6 -9 -41
-13 -109 -13 l-100 0 5 28 c2 15 28 101 57 192 29 91 56 179 60 195 7 25 78
257 160 518 l21 67 120 0 119 0 14 -32z m939 12 c103 -39 167 -137 167 -257 0
-103 -25 -167 -92 -236 -32 -33 -58 -64 -58 -70 0 -10 59 -105 187 -298 34
-54 63 -102 63 -108 0 -7 -40 -11 -122 -11 l-123 0 -22 33 c-55 83 -133 207
-133 213 0 10 -62 98 -78 112 -19 15 -78 16 -88 1 -5 -8 -14 -231 -14 -344 0
-23 -195 -22 -204 1 -8 21 -8 969 1 977 3 4 109 7 234 7 204 0 234 -2 282 -20z
m1529 -382 l3 -403 190 -5 190 -5 3 -70 c2 -38 0 -80 -3 -92 l-5 -23 -293 2
-292 3 -3 485 c-1 267 0 491 3 498 3 8 34 12 105 12 l100 0 2 -402z"/>
<path d="M5005 1605 c-67 -36 -93 -75 -120 -180 -44 -171 4 -375 104 -442 40
-27 117 -31 160 -8 50 25 98 91 116 159 26 97 18 282 -17 356 -14 30 -42 70
-62 89 -31 30 -44 35 -93 38 -40 3 -67 -1 -88 -12z"/>
<path d="M2427 1598 c-16 -12 -17 -28 -15 -148 l3 -135 82 -3 c81 -3 83 -2
120 31 34 32 37 39 41 100 5 80 -19 130 -71 146 -60 19 -141 23 -160 9z"/>
<path d="M3266 1489 c-2 -8 -12 -43 -21 -79 -30 -109 -46 -164 -56 -189 -7
-16 -7 -27 0 -34 9 -9 171 -11 180 -1 5 4 -8 62 -35 154 -9 30 -20 74 -26 97
-10 45 -35 76 -42 52z"/>
<path d="M4049 1583 c-5 -15 -9 -74 -7 -133 l3 -105 80 -3 c66 -2 86 1 113 18
57 35 78 119 46 185 -19 41 -80 65 -166 65 -54 0 -59 -2 -69 -27z"/>
</g>
</svg>
