<?xml version="1.0" standalone="no"?>
<!DOCTYPE svg PUBLIC "-//W3C//DTD SVG 20010904//EN"
 "http://www.w3.org/TR/2001/REC-SVG-20010904/DTD/svg10.dtd">
<svg version="1.0" xmlns="http://www.w3.org/2000/svg"
 width="772.000000pt" height="710.000000pt" viewBox="0 0 772.000000 710.000000"
 preserveAspectRatio="xMidYMid meet">

<g transform="translate(0.000000,710.000000) scale(0.100000,-0.100000)"
fill="#2c65f5" stroke="none">
<path d="M0 3550 l0 -3550 3860 0 3860 0 0 3550 0 3550 -3860 0 -3860 0 0
-3550z m5121 3354 c276 -46 510 -197 648 -416 l43 -68 483 0 c279 0 486 -4
489 -9 4 -6 9 -4873 6 -5949 0 -10 -599 -12 -2977 -10 l-2978 3 0 2980 0 2980
1675 3 1676 2 42 64 c58 88 104 143 171 199 155 133 298 194 541 231 53 7 90
5 181 -10z"/>
<path d="M4910 6770 c-117 -16 -259 -78 -356 -156 -170 -137 -272 -312 -305
-525 -24 -152 37 -380 122 -454 l22 -20 -7 25 c-35 120 -40 162 -27 252 22
151 80 287 139 321 29 17 37 18 82 6 96 -25 190 21 229 111 27 62 27 126 1
165 -11 17 -20 36 -20 42 0 16 92 63 190 97 85 29 227 47 280 35 47 -11 90
-11 90 0 0 15 -68 51 -144 75 -79 26 -211 38 -296 26z"/>
<path d="M957 6283 c-4 -3 -7 -914 -7 -2024 0 -1830 1 -2017 16 -2023 9 -3
783 -6 1720 -6 1407 0 1706 2 1710 13 3 8 -13 40 -35 73 -47 71 -101 193 -124
284 -9 36 -21 121 -26 190 -9 135 -27 188 -99 292 -85 124 -322 302 -537 404
-223 105 -396 150 -544 141 -93 -5 -129 -18 -222 -79 -56 -36 -134 -75 -194
-96 -111 -40 -152 -46 -310 -46 -155 0 -214 8 -300 43 -11 5 -40 17 -65 27
-114 46 -257 156 -341 262 -258 327 -265 797 -15 1120 145 188 339 305 576
347 185 32 384 4 550 -80 144 -72 339 -76 538 -9 308 103 710 406 808 610 l36
75 2 182 c2 137 7 194 20 232 9 27 14 55 12 62 -4 11 -315 13 -1584 13 -868 0
-1582 -3 -1585 -7z"/>
<path d="M5876 6243 c3 -27 11 -57 17 -68 6 -12 11 -83 11 -170 0 -125 -4
-164 -22 -230 -61 -218 -206 -421 -378 -531 -90 -57 -158 -152 -194 -269 -7
-22 -16 -51 -21 -65 -27 -81 -41 -264 -36 -476 6 -306 34 -466 108 -619 49
-102 89 -143 186 -194 92 -48 209 -144 273 -223 172 -213 247 -511 190 -753
-38 -164 -59 -215 -134 -329 -25 -38 -43 -73 -40 -78 3 -4 184 -8 403 -8 323
0 401 3 410 14 8 10 10 547 9 2027 l-3 2014 -393 3 -393 2 7 -47z"/>
<path d="M4301 5258 c-105 -11 -191 -40 -376 -129 -302 -143 -612 -394 -688
-557 -32 -70 -33 -84 -19 -277 10 -132 18 -152 97 -255 108 -140 348 -305 625
-430 132 -60 201 -84 320 -110 156 -36 224 -25 326 53 33 24 82 56 109 70 166
84 254 334 255 718 0 287 -48 538 -130 684 -39 68 -73 96 -155 130 -38 16 -99
45 -135 66 -73 42 -117 49 -229 37z"/>
<path d="M2185 5038 c-356 -86 -616 -401 -617 -748 -1 -143 52 -312 118 -379
29 -29 29 -25 4 64 -11 38 -20 88 -20 109 0 73 32 209 68 294 48 110 72 125
182 116 84 -7 119 4 173 55 58 54 74 149 37 222 -12 22 -18 44 -14 50 8 13
130 71 195 93 110 36 226 43 349 21 l35 -7 -25 21 c-32 27 -87 53 -169 80 -50
16 -87 21 -170 20 -58 -1 -124 -6 -146 -11z"/>
<path d="M4965 3562 c-138 -43 -233 -100 -333 -201 -196 -197 -276 -487 -201
-731 18 -58 68 -156 89 -175 24 -22 25 -15 4 67 -30 115 -4 292 63 425 40 80
68 94 168 87 72 -5 85 -3 125 18 67 37 102 91 103 165 1 43 -4 71 -18 97 -17
31 -18 38 -5 50 26 25 89 55 178 87 78 28 99 31 212 32 87 1 132 -3 149 -12
40 -22 20 10 -25 40 -74 51 -157 72 -294 75 -114 4 -133 1 -215 -24z"/>
<path d="M1635 1803 c-206 -44 -321 -194 -284 -371 30 -147 109 -213 316 -262
48 -12 100 -29 115 -38 53 -31 61 -100 16 -142 -28 -26 -70 -33 -162 -28 -61
3 -86 10 -149 42 -42 21 -84 47 -93 57 -9 10 -25 19 -36 19 -16 0 -18 -10 -18
-115 0 -131 -8 -120 112 -161 132 -45 315 -41 417 8 25 12 69 45 97 74 67 68
89 134 81 244 -11 164 -88 229 -352 295 -86 22 -125 54 -125 102 0 62 52 93
156 93 79 0 157 -26 225 -75 27 -19 54 -33 59 -30 6 4 10 52 10 109 0 85 -3
106 -17 119 -49 44 -273 81 -368 60z"/>
<path d="M4960 1799 c-115 -31 -212 -123 -268 -253 -23 -52 -42 -166 -42 -251
0 -176 49 -322 138 -411 52 -53 151 -104 199 -104 37 0 63 -22 63 -54 0 -72
59 -158 135 -199 55 -29 236 -32 278 -4 27 17 28 21 25 95 -3 76 -3 77 -28 74
-118 -16 -146 -14 -178 13 -24 20 -32 35 -32 60 0 30 6 38 44 60 88 51 156
155 191 289 19 71 19 268 1 351 -35 160 -145 290 -279 330 -56 17 -192 19
-247 4z m226 -220 c20 -19 48 -59 62 -89 22 -47 26 -73 30 -174 5 -147 -12
-224 -65 -286 -45 -52 -80 -70 -141 -70 -120 0 -202 133 -202 326 0 218 82
340 223 331 49 -3 62 -8 93 -38z"/>
<path d="M2202 1293 l3 -498 100 0 100 0 5 155 5 155 101 6 c140 9 196 29 265
98 75 75 99 139 99 261 0 159 -57 251 -184 299 -52 19 -77 21 -276 21 l-220 0
2 -497z m385 296 c52 -16 76 -66 71 -146 -4 -61 -7 -68 -41 -100 -37 -33 -39
-34 -120 -31 l-82 3 -3 135 c-3 160 0 165 88 155 30 -3 69 -11 87 -16z"/>
<path d="M3140 1723 c-82 -261 -153 -493 -160 -518 -4 -16 -31 -104 -60 -195
-29 -91 -55 -177 -57 -192 l-5 -28 100 0 c68 0 103 4 109 13 6 6 18 44 28 82
30 115 14 106 187 103 l151 -3 13 -40 c7 -22 21 -65 31 -95 l18 -55 104 -3
103 -3 -7 48 c-4 26 -13 63 -20 83 -7 19 -25 76 -40 125 -15 50 -37 122 -50
160 -12 39 -30 97 -40 130 -19 64 -61 204 -75 245 -4 14 -15 52 -25 85 -10 33
-24 75 -31 93 l-14 32 -119 0 -120 0 -21 -67z m168 -286 c6 -23 17 -67 26 -97
27 -92 40 -150 35 -154 -9 -10 -171 -8 -180 1 -7 7 -7 18 0 34 10 25 26 80 56
189 9 36 19 71 21 79 7 24 32 -7 42 -52z"/>
<path d="M3837 1783 c-9 -8 -9 -956 -1 -977 9 -23 204 -24 204 -1 0 113 9 336
14 344 10 15 69 14 88 -1 16 -14 78 -102 78 -112 0 -6 78 -130 133 -213 l22
-33 123 0 c82 0 122 4 122 11 0 6 -29 54 -63 108 -128 193 -187 288 -187 298
0 6 26 37 58 70 67 69 92 133 92 236 0 120 -64 218 -167 257 -48 18 -78 20
-282 20 -125 0 -231 -3 -234 -7z m385 -189 c35 -12 50 -23 62 -49 32 -66 11
-150 -46 -185 -27 -17 -47 -20 -113 -18 l-80 3 -3 105 c-2 59 2 118 7 133 10
25 15 27 69 27 32 0 79 -7 104 -16z"/>
<path d="M5675 1778 c-3 -7 -4 -231 -3 -498 l3 -485 292 -3 293 -2 5 23 c3 12
5 54 3 92 l-3 70 -190 5 -190 5 -3 403 -2 402 -100 0 c-71 0 -102 -4 -105 -12z"/>
</g>
</svg>
